<?xml version="1.0" standalone="no"?>
<!DOCTYPE svg PUBLIC "-//W3C//DTD SVG 20010904//EN"
 "http://www.w3.org/TR/2001/REC-SVG-20010904/DTD/svg10.dtd">
<svg version="1.0" xmlns="http://www.w3.org/2000/svg"
 width="16.000000pt" height="16.000000pt" viewBox="0 0 16.000000 16.000000"
 preserveAspectRatio="xMidYMid meet">

<g transform="translate(0.000000,16.000000) scale(0.100000,-0.100000)"
fill="#000000" stroke="none">
<path d="M32 134 c-16 -11 -22 -25 -22 -53 0 -42 19 -65 61 -76 37 -9 82 31
82 73 0 63 -67 94 -121 56z m53 -40 c12 -13 19 -14 30 -4 13 11 15 8 15 -16 0
-16 -4 -24 -8 -19 -4 6 -14 10 -22 10 -8 0 -18 3 -21 7 -3 5 -17 -1 -31 -12
-26 -20 -26 -20 -21 0 3 11 9 20 14 20 5 0 9 7 9 15 0 20 14 19 35 -1z"/>
</g>
</svg>
